<?xml version="1.0" standalone="no"?>
<!DOCTYPE svg PUBLIC "-//W3C//DTD SVG 20010904//EN"
 "http://www.w3.org/TR/2001/REC-SVG-20010904/DTD/svg10.dtd">
<svg version="1.0" xmlns="http://www.w3.org/2000/svg"
 width="300.000000pt" height="300.000000pt" viewBox="0 0 300.000000 300.000000"
 preserveAspectRatio="xMidYMid meet">
<metadata>
Created by potrace 1.11, written by Peter Selinger 2001-2013
</metadata>
<g transform="translate(0.000000,300.000000) scale(0.100000,-0.100000)"
fill="#000000" stroke="none">
<path d="M0 1500 l0 -1500 1500 0 1500 0 0 1500 0 1500 -1500 0 -1500 0 0
-1500z m1389 1077 c13 -6 32 -23 42 -37 18 -23 19 -54 19 -473 1 -479 2 -468
-49 -504 -18 -12 -89 -14 -469 -14 -417 1 -449 3 -472 20 -50 36 -50 38 -50
499 0 367 2 437 15 462 31 59 29 59 505 59 326 1 441 -2 459 -12z m1141 -2
c60 -31 60 -32 60 -507 0 -461 0 -463 -50 -499 -23 -18 -54 -19 -473 -19 -479
-1 -468 -2 -503 49 -13 18 -15 91 -14 468 0 418 1 450 19 473 36 50 38 50 499
50 368 0 437 -2 462 -15z m10 -1144 c50 -36 50 -38 50 -499 0 -476 0 -476 -60
-507 -26 -14 -89 -15 -475 -13 l-445 3 -27 28 -28 27 -5 433 c-3 237 -3 445
-1 460 4 36 53 85 89 89 15 2 218 2 452 0 394 -2 427 -4 450 -21z m-1122 -11
c16 -16 31 -42 33 -57 2 -15 2 -223 -1 -460 l-5 -433 -28 -27 -27 -28 -445 -3
c-386 -2 -449 -1 -475 13 -61 32 -61 30 -58 521 l3 446 33 29 32 29 454 0 454
0 30 -30z"/>
</g>
</svg>
